<svg width="60" height="60" viewBox="0 0 60 60" fill="none" xmlns="http://www.w3.org/2000/svg">
<circle cx="30" cy="30" r="29" stroke="#6A4029" stroke-width="2"/>
<path d="M38.75 28.7496H23.925L28.4625 23.2996C28.6747 23.0443 28.7768 22.7152 28.7463 22.3847C28.7158 22.0542 28.5553 21.7493 28.3 21.5371C28.0447 21.3249 27.7156 21.2229 27.3851 21.2533C27.0546 21.2838 26.7497 21.4443 26.5375 21.6996L20.2875 29.1996C20.2455 29.2593 20.2078 29.3219 20.175 29.3871C20.175 29.4496 20.175 29.4871 20.0875 29.5496C20.0308 29.6929 20.0012 29.8455 20 29.9996C20.0012 30.1537 20.0308 30.3063 20.0875 30.4496C20.0875 30.5121 20.0875 30.5496 20.175 30.6121C20.2078 30.6773 20.2455 30.74 20.2875 30.7996L26.5375 38.2996C26.655 38.4407 26.8022 38.5542 26.9686 38.632C27.1349 38.7097 27.3164 38.7499 27.5 38.7496C27.7921 38.7502 28.0751 38.6485 28.3 38.4621C28.4266 38.3572 28.5312 38.2283 28.6079 38.0829C28.6846 37.9374 28.7318 37.7783 28.7469 37.6146C28.762 37.4509 28.7447 37.2858 28.6959 37.1288C28.6471 36.9718 28.5678 36.8259 28.4625 36.6996L23.925 31.2496H38.75C39.0815 31.2496 39.3995 31.1179 39.6339 30.8835C39.8683 30.6491 40 30.3311 40 29.9996C40 29.6681 39.8683 29.3501 39.6339 29.1157C39.3995 28.8813 39.0815 28.7496 38.75 28.7496Z" fill="#6A4029"/>
</svg>
