<svg width="148" height="148" viewBox="0 0 148 148" fill="none" xmlns="http://www.w3.org/2000/svg">
<g filter="url(#filter0_d)">
<circle cx="74" cy="60" r="30" fill="#6A4029"/>
<circle cx="74" cy="60" r="29" stroke="#6A4029" stroke-width="2"/>
</g>
<path d="M65.25 58.7496H80.075L75.5375 53.2996C75.3253 53.0443 75.2232 52.7152 75.2537 52.3847C75.2842 52.0542 75.4447 51.7493 75.7 51.5371C75.9553 51.3249 76.2844 51.2229 76.6149 51.2533C76.9454 51.2838 77.2503 51.4443 77.4625 51.6996L83.7125 59.1996C83.7545 59.2593 83.7922 59.3219 83.825 59.3871C83.825 59.4496 83.825 59.4871 83.9125 59.5496C83.9692 59.6929 83.9988 59.8455 84 59.9996C83.9988 60.1537 83.9692 60.3063 83.9125 60.4496C83.9125 60.5121 83.9125 60.5496 83.825 60.6121C83.7922 60.6773 83.7545 60.74 83.7125 60.7996L77.4625 68.2996C77.345 68.4407 77.1978 68.5542 77.0314 68.632C76.8651 68.7097 76.6836 68.7499 76.5 68.7496C76.2079 68.7502 75.9249 68.6485 75.7 68.4621C75.5734 68.3572 75.4688 68.2283 75.3921 68.0829C75.3154 67.9374 75.2682 67.7783 75.2531 67.6146C75.238 67.4509 75.2553 67.2858 75.3041 67.1288C75.3529 66.9718 75.4322 66.8259 75.5375 66.6996L80.075 61.2496H65.25C64.9185 61.2496 64.6005 61.1179 64.3661 60.8835C64.1317 60.6491 64 60.3311 64 59.9996C64 59.6681 64.1317 59.3501 64.3661 59.1157C64.6005 58.8813 64.9185 58.7496 65.25 58.7496Z" fill="white"/>
<defs>
<filter id="filter0_d" x="0" y="0" width="148" height="148" filterUnits="userSpaceOnUse" color-interpolation-filters="sRGB">
<feFlood flood-opacity="0" result="BackgroundImageFix"/>
<feColorMatrix in="SourceAlpha" type="matrix" values="0 0 0 0 0 0 0 0 0 0 0 0 0 0 0 0 0 0 127 0" result="hardAlpha"/>
<feOffset dy="14"/>
<feGaussianBlur stdDeviation="22"/>
<feColorMatrix type="matrix" values="0 0 0 0 0.0561111 0 0 0 0 0.0777333 0 0 0 0 0.133333 0 0 0 0.08 0"/>
<feBlend mode="normal" in2="BackgroundImageFix" result="effect1_dropShadow"/>
<feBlend mode="normal" in="SourceGraphic" in2="effect1_dropShadow" result="shape"/>
</filter>
</defs>
</svg>
