<svg width="30" height="30" viewBox="0 0 30 30" fill="none" xmlns="http://www.w3.org/2000/svg">
<circle cx="15" cy="15" r="15" fill="#6A4029"/>
<path d="M18.0779 8.54314C18.2368 8.37094 18.4255 8.23435 18.6332 8.14116C18.8409 8.04796 19.0635 8 19.2883 8C19.513 8 19.7356 8.04796 19.9433 8.14116C20.151 8.23435 20.3397 8.37094 20.4986 8.54314C20.6576 8.71533 20.7837 8.91976 20.8697 9.14474C20.9557 9.36973 21 9.61086 21 9.85439C21 10.0979 20.9557 10.339 20.8697 10.564C20.7837 10.789 20.6576 10.9934 20.4986 11.1656L12.3286 20.0166L9 21L9.90779 17.3941L18.0779 8.54314Z" stroke="white" stroke-width="2" stroke-linecap="round" stroke-linejoin="round"/>
</svg>
