<svg width="35" height="34" viewBox="0 0 35 34" fill="none" xmlns="http://www.w3.org/2000/svg">
<path d="M17.4001 0C8.1216 0 0.600098 7.5215 0.600098 16.8C0.600098 26.0785 8.1216 33.6 17.4001 33.6C26.6786 33.6 34.2001 26.0785 34.2001 16.8C34.2001 7.5215 26.6786 0 17.4001 0ZM24.2339 13.762C24.2409 13.9055 24.2426 14.049 24.2426 14.189C24.2426 18.564 20.9159 23.6058 14.8294 23.6058C13.0309 23.6087 11.2698 23.0922 9.75785 22.1183C10.0151 22.1498 10.2793 22.162 10.5471 22.162C12.0976 22.162 13.5239 21.6353 14.6561 20.7463C13.9661 20.7327 13.2975 20.5042 12.7435 20.0927C12.1896 19.6811 11.7778 19.107 11.5656 18.4503C12.0611 18.5445 12.5716 18.5247 13.0583 18.3925C12.3094 18.2411 11.6359 17.8353 11.1521 17.2439C10.6682 16.6526 10.4038 15.9121 10.4036 15.148V15.1078C10.8498 15.3545 11.3608 15.505 11.9033 15.5225C11.2012 15.0551 10.7042 14.3372 10.5139 13.5155C10.3236 12.6938 10.4544 11.8304 10.8796 11.102C11.7108 12.124 12.7473 12.9601 13.9221 13.556C15.0969 14.152 16.3837 14.4947 17.6994 14.5618C17.5321 13.8518 17.6041 13.1065 17.9041 12.4416C18.2042 11.7768 18.7154 11.2297 19.3585 10.8855C20.0015 10.5412 20.7403 10.419 21.4599 10.5379C22.1796 10.6568 22.8397 11.0102 23.3379 11.543C24.0784 11.3965 24.7886 11.1248 25.4379 10.7398C25.191 11.5065 24.6743 12.1576 23.9836 12.572C24.6396 12.493 25.2801 12.3166 25.8841 12.0488C25.4405 12.7136 24.8816 13.2938 24.2339 13.762Z" fill="#FFBA33"/>
</svg>
